<svg width="383" height="106" viewBox="0 0 383 106" fill="none" xmlns="http://www.w3.org/2000/svg">
<path d="M114.891 64.9964V61.5927H123.873V64.9964C123.873 71.7091 127.56 76.5309 135.124 76.5309C142.876 76.5309 146.28 71.8036 146.28 64.7127V15.6436H155.545V65.0909C155.545 77.3818 147.32 85.1345 135.124 85.1345C122.076 85.1345 114.891 76.8145 114.891 64.9964ZM177.992 85.1345C168.064 85.1345 162.203 79.5564 162.203 71.1418C162.203 62.6327 168.537 57.3382 179.41 56.4873L193.97 55.3527V54.0291C193.97 46.2764 189.337 43.5345 183.097 43.5345C175.628 43.5345 171.374 46.8436 171.374 52.4218H163.621C163.621 42.7782 171.563 36.4436 183.475 36.4436C194.915 36.4436 202.668 42.4945 202.668 54.9745V84H195.104L194.159 76.5309C191.795 81.8255 185.461 85.1345 177.992 85.1345ZM180.544 78.2327C188.959 78.2327 194.064 72.7491 194.064 64.0509V61.5927L182.246 62.5382C174.399 63.2945 171.184 66.32 171.184 70.8582C171.184 75.7745 174.777 78.2327 180.544 78.2327ZM218.863 84H209.976V37.7673H218.012L218.958 44.8582C221.889 39.5636 227.751 36.4436 234.274 36.4436C246.471 36.4436 252.049 43.9127 252.049 55.7309V84H243.161V57.7164C243.161 48.3564 238.812 44.5745 232.005 44.5745C223.685 44.5745 218.863 50.5309 218.863 59.5127V84ZM256.427 59.7018C256.427 46.6545 264.842 36.4436 278.267 36.4436C285.736 36.4436 291.504 39.8473 294.434 45.6145L295.096 37.7673H303.038V82.1091C303.038 96.6691 294.056 105.935 279.874 105.935C267.3 105.935 258.696 98.8436 256.994 87.12H265.882C267.016 93.9273 272.122 97.8982 279.874 97.8982C288.573 97.8982 294.245 92.2255 294.245 83.4327V74.1673C291.22 79.5564 285.169 82.7709 277.889 82.7709C264.747 82.7709 256.427 72.6545 256.427 59.7018ZM265.314 59.5127C265.314 68.2109 270.704 75.0182 279.402 75.0182C288.384 75.0182 293.867 68.5891 293.867 59.5127C293.867 50.6255 288.573 44.1964 279.496 44.1964C270.609 44.1964 265.314 51.0036 265.314 59.5127ZM337.336 37.3891V45.52H333.366C324.951 45.52 319.751 50.6255 319.751 59.5127V84H310.864V37.8618H319.184L319.751 44.8582C321.642 40.0364 326.275 36.8218 332.609 36.8218C334.216 36.8218 335.54 37.0109 337.336 37.3891ZM352.345 85.1345C342.418 85.1345 336.556 79.5564 336.556 71.1418C336.556 62.6327 342.891 57.3382 353.764 56.4873L368.324 55.3527V54.0291C368.324 46.2764 363.691 43.5345 357.451 43.5345C349.982 43.5345 345.727 46.8436 345.727 52.4218H337.974C337.974 42.7782 345.916 36.4436 357.829 36.4436C369.269 36.4436 377.022 42.4945 377.022 54.9745V84H369.458L368.513 76.5309C366.149 81.8255 359.814 85.1345 352.345 85.1345ZM354.898 78.2327C363.313 78.2327 368.418 72.7491 368.418 64.0509V61.5927L356.6 62.5382C348.753 63.2945 345.538 66.32 345.538 70.8582C345.538 75.7745 349.131 78.2327 354.898 78.2327Z" fill="#1D2939"/>
<path d="M0 50C0 22.3858 22.3858 0 50 0H100V50C100 77.6142 77.6142 100 50 100V100C22.3858 100 0 77.6142 0 50V50Z" fill="#1D2939"/>
<rect x="52" y="13" width="36" height="36" fill="white"/>
<path d="M52 52H88V52C88 71.8823 71.8823 88 52 88V88V52Z" fill="white"/>
<path d="M49 52H13V52C13 71.8823 29.1177 88 49 88V88V52Z" fill="white"/>
</svg>
